<?xml version="1.0" encoding="UTF-8"?>
<!DOCTYPE svg PUBLIC "-//W3C//DTD SVG 1.1//EN" "http://www.w3.org/Graphics/SVG/1.1/DTD/svg11.dtd">
<!-- Creator: CorelDRAW -->
<svg xmlns="http://www.w3.org/2000/svg" xml:space="preserve" width="2048px" height="2048px" style="shape-rendering:geometricPrecision; text-rendering:geometricPrecision; image-rendering:optimizeQuality; fill-rule:evenodd; clip-rule:evenodd"
viewBox="0 0 2048 2048"
 xmlns:xlink="http://www.w3.org/1999/xlink">
 <defs>
  <style type="text/css">
   <![CDATA[
    .fil1 {fill:none}
    .fil0 {fill:#424242}
   ]]>
  </style>
 </defs>
 <g id="Layer_x0020_1">
  <metadata id="CorelCorpID_0Corel-Layer"/>
  <g id="_324609512">
   <path id="_324609584" class="fil0" d="M312.254 536.658l247.696 0 0 112.75 -247.696 0 0 -112.75zm-56.2548 161.003l1536 0 0 -209.256 -1536 0 0 209.256zm352.204 -48.2528l0 -112.75 247.697 0 0 112.75 -247.697 0zm295.949 0l0 -112.75 247.697 0 0 112.75 -247.697 0zm295.95 0l0 -112.75 247.696 0 0 112.75 -247.696 0zm295.949 0l0 -112.75 247.696 0 0 112.75 -247.696 0z"/>
   <path id="_324609536" class="fil0" d="M312.254 1398.59l247.696 0 0 112.75 -247.696 0 0 -112.75zm-56.2548 161.003l1536 0 0 -209.256 -1536 0 0 209.256zm352.204 -48.2528l0 -112.75 247.697 0 0 112.75 -247.697 0zm295.949 0l0 -112.75 247.697 0 0 112.75 -247.697 0zm295.95 0l0 -112.75 247.696 0 0 112.75 -247.696 0zm295.949 0l0 -112.75 247.696 0 0 112.75 -247.696 0z"/>
   <path id="_324609200" class="fil0" d="M255.999 729.661l1536 0 0 588.68 -1536 0 0 -588.68zm943.599 294.34l-351.198 237.247 0 -474.495 351.198 237.248z"/>
  </g>
 </g>
 <rect class="fil1" width="2048" height="2048"/>
</svg>
